<svg xmlns="http://www.w3.org/2000/svg" viewBox="0 0 146.08 42"><title>logo-solana</title><path d="M5.83,23.94,0,18.14H5.83ZM5.83,37H0l5.83-5.8ZM12.4,23.94H6.58v-5.8H12.4Zm13.07,0H19.64v-5.8h5.83Zm-6.58,0H13.07v-5.8h5.82ZM12.4,37H6.58V31.2H12.4Zm13.07,0H19.64V31.2h5.83Zm-6.58,0H13.07V31.2h5.82Zm7.33,0V31.2h5.83ZM32,23.94H26.14v-5.8Zm0,6.53H26.14v-5.8H32ZM12.4,10.8H6.58V5H12.4Zm-6.57,0H0L5.83,5Zm19.64,0H19.64V5h5.83Zm-6.58,0H13.07V5h5.82Zm7.33,0V5h5.83ZM5.83,17.41H0V11.53H5.83Z" style="fill:#62f8bf;fill-rule:evenodd"/><path d="M78.91,15h2.25v10h9l-1.83,2H78.91Zm-28.38,7.1h-5a3.59,3.59,0,0,1,0-7.18h8.58l-2.5,2.37H45.53a1.27,1.27,0,0,0-1.25,1.22,1.22,1.22,0,0,0,1.25,1.23h5.25a3.65,3.65,0,0,1,3.33,3.59A3.59,3.59,0,0,1,50.53,27H41.7l2.75-2.37h6.08a1.23,1.23,0,1,0,0-2.45ZM62.43,15h8.16a2.3,2.3,0,0,1,2.16,2.12v7.68A2.15,2.15,0,0,1,70.59,27H62.43a2.3,2.3,0,0,1-2.16-2.2V17.16A2.23,2.23,0,0,1,62.43,15Zm1.5,2.12a1.36,1.36,0,0,0-1.33,1.31v4.82a1.37,1.37,0,0,0,1.33,1.38h5.16a1.37,1.37,0,0,0,1.33-1.38V18.47a1.3,1.3,0,0,0-1.33-1.31Zm34.71,1.15v2.36h7.74V18.31a1.37,1.37,0,0,0-1.33-1.39H100A1.37,1.37,0,0,0,98.64,18.31ZM106.38,27V22.39H98.64V27H96.31v-9.8A2.22,2.22,0,0,1,98.55,15h8.08a2.31,2.31,0,0,1,2.16,2.2V27Zm29.47-8.73v2.36h7.74V18.31a1.38,1.38,0,0,0-1.33-1.39h-5.08A1.42,1.42,0,0,0,135.85,18.31ZM143.67,27V22.39h-7.74V27H133.6v-9.8a2.22,2.22,0,0,1,2.25-2.2h8.07a2.31,2.31,0,0,1,2.16,2.2V27ZM125,24.1V15h2.34V27H125l-7.74-8.9V27H115V15h2.33Z" style="fill:#282d2b;fill-rule:evenodd"/><line x1="146.08" y1="42" y2="42" style="fill:none"/><line x2="146.08" style="fill:none"/><line x1="146.08" x2="146.08" y2="42" style="fill:none"/><line y2="42" style="fill:none"/></svg>