<svg xmlns="http://www.w3.org/2000/svg" viewBox="0 0 145.36 46.16"><title>logo-cosmos</title><path d="M16.15,29l-2-2a10.92,10.92,0,0,1-2.3,1.68,5.84,5.84,0,0,1-2.77.62,5.51,5.51,0,0,1-2.34-.49A5.77,5.77,0,0,1,4.9,27.43a6.12,6.12,0,0,1-1.22-2,7.39,7.39,0,0,1,0-4.91,6.09,6.09,0,0,1,1.22-2,5.9,5.9,0,0,1,1.85-1.34,5.67,5.67,0,0,1,2.34-.49,5.83,5.83,0,0,1,2.7.61A9.78,9.78,0,0,1,14,18.9l2-2.3a12.82,12.82,0,0,0-1.33-1.11,8.27,8.27,0,0,0-1.54-.87,9.8,9.8,0,0,0-1.83-.57,11.56,11.56,0,0,0-2.21-.2,9.15,9.15,0,0,0-3.68.72,8.94,8.94,0,0,0-2.88,2A8.73,8.73,0,0,0,.67,19.45a9.78,9.78,0,0,0,0,7.14,8.91,8.91,0,0,0,1.88,2.89A8.89,8.89,0,0,0,9,32.12a11.21,11.21,0,0,0,2.26-.21,8.83,8.83,0,0,0,1.88-.63,9.79,9.79,0,0,0,1.61-1A11.44,11.44,0,0,0,16.15,29Z" style="fill-rule:evenodd"/><path d="M56.19,18.85a1.9,1.9,0,0,1,.76-1.5,3.24,3.24,0,0,1,2.11-.61,6.45,6.45,0,0,1,2.38.46,10.49,10.49,0,0,1,2.38,1.35l1.66-2.34a10.38,10.38,0,0,0-2.9-1.65A10,10,0,0,0,59.11,14a7.43,7.43,0,0,0-2.41.37,5.49,5.49,0,0,0-1.89,1A5.05,5.05,0,0,0,53.58,17a4.82,4.82,0,0,0-.45,2.1,5,5,0,0,0,.39,2.09,4,4,0,0,0,1.14,1.46,6.36,6.36,0,0,0,1.83,1,21.31,21.31,0,0,0,2.51.73A19.35,19.35,0,0,1,61,25a5.05,5.05,0,0,1,1.21.59,1.74,1.74,0,0,1,.6.69,2.13,2.13,0,0,1,.16.86,1.91,1.91,0,0,1-.84,1.63,3.77,3.77,0,0,1-2.27.61,7,7,0,0,1-3-.6,10.77,10.77,0,0,1-2.59-1.7L52.46,29.3a10.55,10.55,0,0,0,3.43,2.13,11.11,11.11,0,0,0,3.89.69,8.86,8.86,0,0,0,2.54-.35,5.77,5.77,0,0,0,2-1,4.79,4.79,0,0,0,1.28-1.67A5.15,5.15,0,0,0,66,26.83a4.7,4.7,0,0,0-.36-1.92,4.05,4.05,0,0,0-1.07-1.44,6,6,0,0,0-1.77-1,18.85,18.85,0,0,0-2.46-.78c-.84-.2-1.53-.4-2.08-.58A5.29,5.29,0,0,1,57,20.46a1.81,1.81,0,0,1-.64-.7A2.11,2.11,0,0,1,56.19,18.85Z" style="fill-rule:evenodd"/><path d="M90.55,19.1V31.69h3.07V14.14H90.33L85,22.44l-5.35-8.3h-3.3V31.69h3.07V19.15l5.51,8.23H85Z" style="fill-rule:evenodd"/><path d="M119.38,23a6.64,6.64,0,0,1-.44,2.44,6.1,6.1,0,0,1-1.22,2,5.9,5.9,0,0,1-8.6,0,6.1,6.1,0,0,1-1.23-2,6.64,6.64,0,0,1-.44-2.44,6.55,6.55,0,0,1,.44-2.43,6.14,6.14,0,0,1,1.22-2A5.76,5.76,0,0,1,111,17.19a6,6,0,0,1,2.41-.49,5.86,5.86,0,0,1,4.32,1.87,6,6,0,0,1,1.23,2A6.55,6.55,0,0,1,119.38,23Zm3.25-.05a9.13,9.13,0,0,0-.68-3.53,8.81,8.81,0,0,0-4.78-4.86,9.43,9.43,0,0,0-3.73-.72,9.16,9.16,0,0,0-6.65,2.71,9,9,0,0,0-1.91,2.92,9.5,9.5,0,0,0,0,7.06,8.73,8.73,0,0,0,4.78,4.86,9.43,9.43,0,0,0,3.73.72A9.16,9.16,0,0,0,120,29.41,8.85,8.85,0,0,0,122,26.49,9.1,9.1,0,0,0,122.63,23Z" style="fill-rule:evenodd"/><path d="M135.52,18.85a1.89,1.89,0,0,1,.75-1.5,3.27,3.27,0,0,1,2.11-.61,6.46,6.46,0,0,1,2.39.46,10.7,10.7,0,0,1,2.38,1.35l1.66-2.34a10.52,10.52,0,0,0-2.9-1.65,10,10,0,0,0-3.48-.57,7.37,7.37,0,0,0-2.4.37,5.4,5.4,0,0,0-1.89,1A5.05,5.05,0,0,0,132.91,17a4.82,4.82,0,0,0-.45,2.1,5,5,0,0,0,.39,2.09A4,4,0,0,0,134,22.68a6.56,6.56,0,0,0,1.84,1,21.12,21.12,0,0,0,2.5.73,18.63,18.63,0,0,1,2,.58,4.87,4.87,0,0,1,1.21.59,1.67,1.67,0,0,1,.6.69,2.13,2.13,0,0,1,.17.86,1.91,1.91,0,0,1-.84,1.63,3.77,3.77,0,0,1-2.27.61,7,7,0,0,1-3-.6,10.53,10.53,0,0,1-2.58-1.7l-1.86,2.22a10.59,10.59,0,0,0,3.44,2.13,11.07,11.07,0,0,0,3.89.69,8.86,8.86,0,0,0,2.54-.35,5.86,5.86,0,0,0,2-1,4.91,4.91,0,0,0,1.28-1.67,5.3,5.3,0,0,0,.46-2.24,4.7,4.7,0,0,0-.36-1.92,4.2,4.2,0,0,0-1.08-1.44,5.91,5.91,0,0,0-1.77-1,18.2,18.2,0,0,0-2.45-.78c-.84-.2-1.53-.4-2.08-.58a5.29,5.29,0,0,1-1.28-.61,1.74,1.74,0,0,1-.64-.7A2.11,2.11,0,0,1,135.52,18.85Z" style="fill-rule:evenodd"/><path d="M37.19,17.65,28.79,26c-.11-.21-.21-.43-.3-.65a6.93,6.93,0,0,1,0-4.86,6.22,6.22,0,0,1,1.22-2,5.63,5.63,0,0,1,1.88-1.33,6.11,6.11,0,0,1,4.82,0A5.86,5.86,0,0,1,37.19,17.65Zm-.74,11.11a6,6,0,0,1-2.41.49,5.66,5.66,0,0,1-2.41-.51,4.84,4.84,0,0,1-.78-.42l8.4-8.39a5.37,5.37,0,0,1,.29.65,6.93,6.93,0,0,1,0,4.86,6.05,6.05,0,0,1-1.22,2A5.76,5.76,0,0,1,36.45,28.76Zm1.27,2.6a9.31,9.31,0,0,0,2.92-2,8.77,8.77,0,0,0,1.91-2.9,9.45,9.45,0,0,0,0-7,9.37,9.37,0,0,0-1-1.82L47,12.17,44.85,10l-5.48,5.47a10.21,10.21,0,0,0-1.6-.87,10.06,10.06,0,0,0-7.45,0,9.19,9.19,0,0,0-2.92,2,8.9,8.9,0,0,0-1.92,2.9,9.45,9.45,0,0,0,0,7,8.9,8.9,0,0,0,1,1.82L21,33.81,23.18,36l5.48-5.47a8.88,8.88,0,0,0,1.61.87,9.93,9.93,0,0,0,7.45,0Z" style="fill-rule:evenodd"/><line y1="46.16" x2="145.36" y2="46.16" style="fill:none"/><line x2="145.36" style="fill:none"/><line x1="145.36" x2="145.36" y2="46.16" style="fill:none"/><line y2="46.16" style="fill:none"/></svg>