<svg xmlns="http://www.w3.org/2000/svg" viewBox="0 0 145 42"><title>logo-polkadot</title><path d="M33.92,17.84A8.59,8.59,0,0,0,27,21.32a12.74,12.74,0,0,0-2.79,8.13,7.85,7.85,0,0,0,1.73,5.23,5.66,5.66,0,0,0,4.62,1.93,8.42,8.42,0,0,0,6.63-3.29,12.71,12.71,0,0,0,3-8.51,8.83,8.83,0,0,0-1.45-5.13C37.76,18.42,36.13,17.84,33.92,17.84Zm.19,13.93a4.83,4.83,0,0,1-3.36,1.46,2.77,2.77,0,0,1-2.21-1,3.88,3.88,0,0,1-.77-2.71,9.23,9.23,0,0,1,1.73-5.9,5,5,0,0,1,4.32-2.33c1.93,0,3,1.16,3,3.58A10.09,10.09,0,0,1,34.11,31.77Zm105.6-5.32a1.67,1.67,0,0,0-2.11,1c-1.54,3.87-3.36,5.81-5.67,5.81-1.25,0-1.82-1.07-1.82-3a52.68,52.68,0,0,1,1-6.68l.48-2.32h4.71a1.66,1.66,0,0,0,1.63-1.36,1.73,1.73,0,0,0-1.35-2h-4.22l.77-3.87a1.79,1.79,0,0,0-1.35-2.13h-.29a1.77,1.77,0,0,0-1.73,1.35l-1,4.55H117.81a8.17,8.17,0,0,0-6.92,3.58,12.63,12.63,0,0,0-2.79,8.13,9.64,9.64,0,0,0,.29,2.32,3.57,3.57,0,0,1-2.88,1.36,1.52,1.52,0,0,1-1.44-.58,3.39,3.39,0,0,1-.49-1.94,31.5,31.5,0,0,1,.77-5.9l2.79-13.26a1.77,1.77,0,1,0-3.46-.77l-1.63,8.13a7.67,7.67,0,0,0-3.85-1.07A9.06,9.06,0,0,0,91.09,21a12.43,12.43,0,0,0-2.78,8.32,9,9,0,0,0,.38,2.81,4.42,4.42,0,0,1-2.4,1,1.82,1.82,0,0,1-1.54-.58,2.81,2.81,0,0,1-.48-1.94,28.44,28.44,0,0,1,.58-4,1.85,1.85,0,0,0-1.44-2.13h-.2a1.78,1.78,0,0,0-1.92,1.35,15.26,15.26,0,0,1-2.4,5.23,4.57,4.57,0,0,1-3.65,2.13,2.07,2.07,0,0,1-1.83-1.07,5.14,5.14,0,0,1-.67-2.9,9.16,9.16,0,0,1,1.73-5.81A5.55,5.55,0,0,1,79,21.13a5.94,5.94,0,0,1,2.59.58,1.48,1.48,0,0,0,1.54-.1,1.71,1.71,0,0,0,.57-2.32,1.75,1.75,0,0,0-.76-.68c-.48-.19-.87-.29-1.35-.48A12.21,12.21,0,0,0,79,17.74,9,9,0,0,0,72,21a9.37,9.37,0,0,0-2.21,4.07c-1.73,5.42-3.84,8-6.53,8a2,2,0,0,1-1.92-.87,2.78,2.78,0,0,1-.58-2.13,1.63,1.63,0,0,1,.1-.68,9.45,9.45,0,0,0,4-3A7.63,7.63,0,0,0,66.4,21.9c0-2.71-1.44-4.16-4.52-4.16a7.54,7.54,0,0,0-5.57,2.32l1.82-8.61a1.67,1.67,0,0,0-1.34-2H56.4a1.75,1.75,0,0,0-1.72,1.35l-5.1,23.91a1.69,1.69,0,0,0,1.35,2h.38A1.74,1.74,0,0,0,53,35.26l1.53-7.36a25.77,25.77,0,0,1,1.06-2.8,7.59,7.59,0,0,1,2.31-2.62,5.09,5.09,0,0,1,3.46-1.25,1.19,1.19,0,0,1,1.34,1v.39A3.91,3.91,0,0,1,61,25.48a7.7,7.7,0,0,1-3.56,1.75c-.09,1.06-.19,1.83-.19,2.22a8.57,8.57,0,0,0,1.54,5.32,5.13,5.13,0,0,0,4.42,1.94,7.67,7.67,0,0,0,6-3l.68-.77a5.43,5.43,0,0,0,1,1.74,5.1,5.1,0,0,0,4.33,1.93,7.09,7.09,0,0,0,6-3.38c.67,2.32,2.3,3.38,5.09,3.38a6.88,6.88,0,0,0,4.23-1.55,5.42,5.42,0,0,0,3.94,1.46,7.08,7.08,0,0,0,6-3.39c.68,2.32,2.31,3.39,5.1,3.39a7.18,7.18,0,0,0,4.7-1.84,5.94,5.94,0,0,0,4.43,1.84,8.42,8.42,0,0,0,6.63-3.29,13.2,13.2,0,0,0,3-8.52,9.62,9.62,0,0,0-.68-3.68h4.52L127.61,23a34.89,34.89,0,0,0-1.06,7c0,4.25,1.73,6.48,5.19,6.48,3.94,0,6.82-2.61,8.94-7.84a1.64,1.64,0,0,0-.77-2.13C139.91,26.55,139.81,26.55,139.71,26.45Zm-38.62-2A15.57,15.57,0,0,1,98.4,31.1a4.81,4.81,0,0,1-3.75,2.13,2.07,2.07,0,0,1-1.83-1.07,4.85,4.85,0,0,1-.67-2.81,9.13,9.13,0,0,1,1.73-5.8,5.05,5.05,0,0,1,7-1.45c.2.19.49.29.68.48ZM120,28.48a18.09,18.09,0,0,1-1.92,3.2,4.5,4.5,0,0,1-3.37,1.45,2.78,2.78,0,0,1-2.21-1,3.92,3.92,0,0,1-.77-2.71,9.29,9.29,0,0,1,1.73-5.9,5.21,5.21,0,0,1,4.33-2.32c1.92,0,3,1.16,3,3.58A12.08,12.08,0,0,1,120,28.48ZM48.72,9.32A1.76,1.76,0,0,0,47,10.68L41.9,34.58a1.67,1.67,0,0,0,1.34,2h.38a1.76,1.76,0,0,0,1.73-1.35l5.1-23.91a1.76,1.76,0,0,0-1.35-2ZM12.49,4A12.51,12.51,0,0,0,0,16.58a11.67,11.67,0,0,0,.67,4.07,1.75,1.75,0,0,0,2.21,1.06,1.77,1.77,0,0,0,1.06-2.23,7.4,7.4,0,0,1-.48-3.19,8.9,8.9,0,0,1,9.22-8.71,9.11,9.11,0,0,1,8.75,9.29A8.86,8.86,0,0,1,13,25.58s-1.73.1-2.59.19a3.29,3.29,0,0,0-1,.2h-.2v-.1l.29-1.55,1.64-7.45a1.72,1.72,0,1,0-3.37-.68S3.84,34.48,3.84,34.58a1.67,1.67,0,0,0,1.25,2h.1a1.73,1.73,0,0,0,2-1.26v-.09c.09-.2.57-2.61.57-2.61a4.43,4.43,0,0,1,3.65-3.49c.39-.1,1.93-.19,1.93-.19A12.55,12.55,0,0,0,24.6,15.32,12.42,12.42,0,0,0,12.49,4Z" style="fill:#1e1e1e"/><path d="M143.37,32.84a2.16,2.16,0,0,0-2.5,1.64,2,2,0,0,0,1.54,2.42h.09a2,2,0,0,0,2.4-1.55v-.09A2,2,0,0,0,143.37,32.84Z" style="fill:#d93378"/><line y1="42" x2="145" y2="42" style="fill:none"/><line x2="145" style="fill:none"/><line x1="145" x2="145" y2="42" style="fill:none"/><line y2="42" style="fill:none"/></svg>