<svg xmlns="http://www.w3.org/2000/svg" viewBox="0 0 143 46.16"><title>logo-terra</title><path d="M16,5.55a14.41,14.41,0,0,1,5.74-.11,18.58,18.58,0,0,1,6.45,2.13c.35.2,1.17.54,1.37.89l.15.28A21.06,21.06,0,0,0,20.21,10a25.19,25.19,0,0,0-5.73,2.69,13.48,13.48,0,0,0-2.46,2c-.37.38-.66.86-1,1.23s-.31.15-.58-.12l-.73-.73-.9-.9c-.58-.58.07-.83.58-1.11s1.12-.64,1.65-1a8.5,8.5,0,0,0,2.67-2.6,2,2,0,0,0,.09-1.8c-.17-.46-.44-.61-.19-1S14.68,6,15,5.88A8.84,8.84,0,0,1,16,5.55Z" style="fill:#2649a7;stroke:#2649a7;stroke-miterlimit:10;stroke-width:0.09375000000000001px"/><path d="M8.65,8.06A8.68,8.68,0,0,1,13.2,6.8a2.29,2.29,0,0,1,.48,2.69c-1.15,1.9-3.21,3-5.11,4a23.48,23.48,0,0,1-3.15,1.16,10.23,10.23,0,0,1-3.17.69c0-.61.77-1.58,1.11-2.08a16.43,16.43,0,0,1,1.53-2A20,20,0,0,1,8.65,8.06Z" style="fill:#5994ef;stroke:#5994ef;stroke-miterlimit:10;stroke-width:0.09375000000000001px"/><path d="M20.21,10a21.06,21.06,0,0,1,9.53-1.3l.24,0c.69.11,1.78,1.48,2.25,2a18.36,18.36,0,0,1,2.06,2.58,19.5,19.5,0,0,1,2.64,6.06A18.63,18.63,0,0,1,37.34,26a13,13,0,0,1-.65,3.27c-.57,1.39-1.33,1.38-2.48,2-4.37-.42-8.52-1.95-12.67-3.28a24.78,24.78,0,0,1-6.32-3.11,27.85,27.85,0,0,1-2.81-2.15,8.39,8.39,0,0,1-1.82-2.62c-.71-1.26-.08-2.65.24-3.91C13,13,16.69,11.35,20.21,10Z" style="fill:#5994ef;stroke:#5994ef;stroke-miterlimit:10;stroke-width:0.09375000000000001px"/><path d="M42.8,9.71c8.11.12,16.28-.12,24.39,0,.12,1.74,0,5.76,0,5.76H58.51q-.06,11.1,0,22.19H51.92V15.47H42.8s0-3.82,0-5.76Z" style="fill:#0b3f99;stroke:#0b3f99;stroke-miterlimit:10;stroke-width:0.09375000000000001px"/><path d="M66.3,21.68c2.93-5.54,10.81-7.52,16.07-4.28a18.72,18.72,0,0,1,2.45,2.18A17.36,17.36,0,0,1,86.92,29c-5.1.15-10.25,0-15.35.07A5,5,0,0,0,78,33c1.34-.28,2.25-1.34,3.2-2.21a8.24,8.24,0,0,1,2.81,2c.6.36,1.62.6,1.54,1.43-4.11,5.06-12.62,5.22-17.25.75a11.4,11.4,0,0,1-2-13.33m5.19,2.92c2.93,0,5.89,0,8.82,0a4.06,4.06,0,0,0-1.58-3.28c-2.57-2-7.12-.08-7.24,3.24Z" style="fill:#0b3f99;stroke:#0b3f99;stroke-miterlimit:10;stroke-width:0.09375000000000001px"/><path d="M98.59,16.77c1.74-1.07,3.84-.95,5.82-.83,0,2,0,4,0,6-2.22-.27-4.83-.79-6.69.75a5.33,5.33,0,0,0-1.54,2.54c-.4,4.11-.08,8.27-.24,12.38-2.18.08-4.35.08-6.53,0,0-7-.08-14.12,0-21.21,2.18-.08,4.35,0,6.53,0a17,17,0,0,1,0,2c1-.24,1.62-1.3,2.61-1.66Z" style="fill:#0b3f99;stroke:#0b3f99;stroke-miterlimit:10;stroke-width:0.09375000000000001px"/><path d="M124.83,17.44a22.36,22.36,0,0,1,11.39-1.34A8.5,8.5,0,0,1,141,18.52c2.08,2.16,2,5.53,2,8.3,0,3.65,0,7.31,0,11-1.94,0-3.88,0-5.82,0V35.64a10.23,10.23,0,0,1-12,1.11,7,7,0,0,1-2.21-6.45,6,6,0,0,1,3.88-4.91c3.32-1.3,7-.91,10.4,0,0-1.63-.71-3.41-2.41-3.84a12.76,12.76,0,0,0-8.55.83c-.35-1.66-1.34-3.17-1.34-4.91M129,29.83c-.12,1.06-.47,2.45.55,3.24,2.58,2,7.8.63,7.64-3.12.2-1-.91-1.35-1.66-1.47-2.22-.51-4.87-.43-6.53,1.35Z" style="fill:#0b3f99;stroke:#0b3f99;stroke-miterlimit:10;stroke-width:0.09375000000000001px"/><path d="M107.1,16.33c2.14.08,4.27.08,6.45,0,0,.72,0,1.47,0,2.18.91-.36,1.46-1.23,2.33-1.66a9,9,0,0,1,6-.79c.2,1.94,0,3.87.12,5.85-1.9-.16-3.84-.55-5.66.16a4.63,4.63,0,0,0-2.69,4.27c-.32,3.76,0,7.6-.16,11.36-2.14,0-4.31,0-6.45,0Q107,27,107.1,16.33Z" style="fill:#0b3f99;stroke:#0b3f99;stroke-miterlimit:10;stroke-width:0.09375000000000001px"/><path d="M1.18,17.36a64.15,64.15,0,0,1,8.7,12.39,15.86,15.86,0,0,1,1.7,7.71c-.12,1.06-.22,2.12-.32,3.18-.87.26-2.5-1.17-3.2-1.63a16.65,16.65,0,0,1-3.43-3.38,19.62,19.62,0,0,1-3.3-5.57A18.21,18.21,0,0,1,.05,23.75a14.65,14.65,0,0,1,.26-3.31A14.18,14.18,0,0,1,1.18,17.36Z" style="fill:#5994ef;stroke:#5994ef;stroke-miterlimit:10;stroke-width:0.09375000000000001px"/><path d="M19.89,27.45c4.71,1.43,9.38,3.33,14.32,3.8a5.3,5.3,0,0,1-.47,1.39c-3.05,1.58-6.65,2.61-8.82,5.5a1.64,1.64,0,0,0-.08,2c-.25-.42-.95.39-1.08.43a2.76,2.76,0,0,1-1.43,0c-3.14-.61-5.56-4.15-6.2-7.09C15.66,30.82,17.87,28.8,19.89,27.45Z" style="fill:#2649a7;stroke:#2649a7;stroke-miterlimit:10;stroke-width:0.09375000000000001px"/><path d="M24.92,38.14a12.66,12.66,0,0,1,4.61-3.52c.88-.43,1.78-.83,2.67-1.24a4.93,4.93,0,0,1,2.91-.58,15,15,0,0,0-1.39,2,12.88,12.88,0,0,1-1.6,1.79,34.36,34.36,0,0,1-4.38,3.51c-.36.26-2.19,1.25-2.63.51l-.27-.48A1.64,1.64,0,0,1,24.92,38.14Z" style="fill:#5994ef;stroke:#5994ef;stroke-miterlimit:10;stroke-width:0.09375000000000001px"/><line x1="0.05" x2="142.96" style="fill:none"/><line x1="142.96" y1="46.16" x2="0.05" y2="46.16" style="fill:none"/><line x1="142.96" x2="142.96" y2="46.16" style="fill:none"/><line x1="0.05" x2="0.05" y2="46.16" style="fill:none"/></svg>