<svg xmlns="http://www.w3.org/2000/svg" xmlns:xlink="http://www.w3.org/1999/xlink" viewBox="0 0 146.22 46.16"><defs><linearGradient id="a" x1="101.75" y1="25.94" x2="146.22" y2="25.94" gradientTransform="translate(0 -3)" gradientUnits="userSpaceOnUse"><stop offset="0" stop-color="#0e91d5"/><stop offset="1" stop-color="#e1375a"/></linearGradient><linearGradient id="b" x1="2.5" y1="36.58" x2="43.68" y2="15.6" xlink:href="#a"/></defs><title>logo-irisnet</title><path d="M56.76,15.3H59c0,.75,0,1.51,0,2.27q0,6.13,0,12.27a2.81,2.81,0,0,1,0,.71,18.6,18.6,0,0,1-2.24,0c0-5.08,0-10.18,0-15.27Z" style="fill:#2e3248"/><path d="M62,16.84a1.53,1.53,0,0,1,1.54-1.54c3.77,0,7.55,0,11.32,0a1.58,1.58,0,0,1,1.53,1.54c0,1.11,0,2.23,0,3.33a4.61,4.61,0,0,1-4.09,4.31c0,.14.12.24.2.35C73.74,26.42,75,28,76.3,29.61a7.44,7.44,0,0,1,.71,1c-.72,0-1.46,0-2.18,0a2.54,2.54,0,0,1-1.92-.81L68.8,24.63c-.1-.18-.35-.1-.51-.12-.82,0-1.64,0-2.46,0a2.23,2.23,0,0,1,1.22-2.06,3.75,3.75,0,0,1,1.76-.23h3a2.27,2.27,0,0,0,1.93-1.15c.5-.83.24-1.84.31-2.76a.58.58,0,0,0-.58-.7H64.85a.55.55,0,0,0-.59.49,21.7,21.7,0,0,0,0,2.28c0,3.4,0,6.8,0,10.2a18.73,18.73,0,0,1-2.25,0c0-4.56,0-9.14,0-13.71Z" style="fill:#2e3248"/><path d="M79.24,15.33c.77-.06,1.55,0,2.33,0,0,5.09,0,10.16,0,15.23l-.07.06h-2.1l-.15-.07c0-3,0-6,0-9,0-2.06,0-4.13,0-6.18Z" style="fill:#2e3248"/><path d="M84.81,18A4.48,4.48,0,0,1,89,15.3h8.82a2.13,2.13,0,0,1-1.08,2,2.4,2.4,0,0,1-1.29.29H89.07a2.12,2.12,0,0,0-2.32,2.15,2.15,2.15,0,0,0,2,2h4.35a11.55,11.55,0,0,1,2.5.13,4.39,4.39,0,0,1,.21,8.42,6.15,6.15,0,0,1-2.18.25H85a2.29,2.29,0,0,1-.53,0,2.09,2.09,0,0,1,2.07-2.27h8a2.13,2.13,0,0,0,2-2.62,2.21,2.21,0,0,0-2.37-1.59h-5.5a4.39,4.39,0,0,1-3.9-2.8A4.24,4.24,0,0,1,84.81,18Z" style="fill:#2e3248"/><path d="M144.86,28.44a4.89,4.89,0,0,0-1.87-.17,3.87,3.87,0,0,1-1.76-.19,1.86,1.86,0,0,1-1.08-1.68V20.05l0-.06c1.42,0,2.84,0,4.27,0,0-.76,0-1.54,0-2.3-1.43,0-2.86,0-4.29,0-.06-.78,0-1.57,0-2.35-.77-.07-1.55,0-2.31,0,0,.78,0,1.57,0,2.35-.87.11-1.77-.05-2.64.07,0,.75,0,1.49,0,2.23l0,.05c.85,0,1.72,0,2.57,0,0,2.17,0,4.34,0,6.51a4.15,4.15,0,0,0,1.87,3.39,4.22,4.22,0,0,0,2.46.7c1.34,0,2.7,0,4,0A2.14,2.14,0,0,0,144.86,28.44ZM111.94,17.88h-8.65a1.61,1.61,0,0,0-1.54,1.56V30.58c.77,0,1.55,0,2.31,0a7.49,7.49,0,0,0,0-.95V20.79a.58.58,0,0,1,.56-.59h7.29a2.11,2.11,0,0,1,1.95,2v6.23a2.17,2.17,0,0,0,2.32,2.11c0-2.39,0-4.79,0-7.19a9.56,9.56,0,0,0-.12-2.07A4.41,4.41,0,0,0,111.94,17.88Zm16.71,5.85c-1.62,0-3.25,0-4.88,0a2.17,2.17,0,0,0-2.09,2.3c2.29,0,4.57,0,6.87,0a4.36,4.36,0,0,0,3.26-1.37,4.15,4.15,0,0,0-2-6.88,7,7,0,0,0-1.87-.14h-5.41A4.21,4.21,0,0,0,118.59,21a6,6,0,0,0-.09,1.46V26a4.64,4.64,0,0,0,.22,1.78,4.19,4.19,0,0,0,2.66,2.63,7.37,7.37,0,0,0,2.48.21c3,0,6,0,9.06,0a2.14,2.14,0,0,0-2.07-2.31h-8.22a1.89,1.89,0,0,1-1.81-1.78V21.93a1.88,1.88,0,0,1,1.9-1.94h6.15a1.9,1.9,0,0,1,1.71,2.31A2,2,0,0,1,128.65,23.73Z" style="fill:url(#a)"/><path d="M7.7,9.05C8.23,8.5,8.76,8,9.34,7.45a20.58,20.58,0,0,1,10.42-5c.37-.81.74-1.63,1.07-2.47A22.8,22.8,0,0,0,6.22,7.24,16.37,16.37,0,0,0,4.47,9.4l.11,0C5.62,9.29,6.68,9.22,7.7,9.05Zm-4,6.55c-.47-.72-1-1.39-1.5-2.09l-.09,0A21.14,21.14,0,0,0,.73,17.25,23.58,23.58,0,0,0,.87,29.42,29.12,29.12,0,0,0,2,32.63l.13-.07c.39-.94.82-1.89,1.21-2.83,0-.08,0-.2,0-.26A21.27,21.27,0,0,1,3.68,15.6ZM27.54,2.69A20.84,20.84,0,0,1,39.19,9.87c.85,0,1.7-.22,2.55-.25a.94.94,0,0,1,.09-.12,23.27,23.27,0,0,0-6.58-6.16A22.47,22.47,0,0,0,25.37,0c.58.86,1.23,1.68,1.85,2.54C27.28,2.66,27.42,2.66,27.54,2.69Zm9.09,23.16c0-.18.09-.33.16-.49,2-4.61,4-9.2,6-13.83-.56,0-1.12.12-1.67.17l-7.49.84a8.87,8.87,0,0,1-1.45.12c-3-4.14-6.08-8.26-9.1-12.4-.18-.09-.17.12-.22.23-1.35,3.12-2.73,6.21-4,9.34-5.14.62-10.3,1.16-15.45,1.79l0,.12,6.11,8.32c.08.12.22.27.09.42-.91,2.09-1.81,4.2-2.73,6.29C5.71,29.39,4.55,32,3.44,34.63c.84,0,1.67-.17,2.5-.26,2.7-.28,5.39-.63,8.09-.89,3,4.06,6,8.1,8.94,12.16.09.11.14.28.31.29,1.38-3.25,2.81-6.47,4.22-9.72a1.53,1.53,0,0,1,.49-.08c4.95-.59,9.92-1.12,14.87-1.71,0-.15-.13-.25-.2-.36C40.64,31.33,38.65,28.58,36.63,25.85Zm-2.51-5.37a7.71,7.71,0,0,0-.39-5.41s0-.11,0-.15c1.09,0,2.17-.24,3.26-.33a17.67,17.67,0,0,1,1.9-.18c-1.25,2.95-2.55,5.88-3.81,8.82a1.35,1.35,0,0,1-.17.34,10.75,10.75,0,0,0-1.52-1.25C33.61,21.69,34,21.12,34.12,20.48ZM20.35,12.21c1-2.39,2.1-4.78,3.11-7.18h.11c2.5,3.43,5,6.84,7.53,10.25a5.24,5.24,0,0,1,.5,5.08c-1.09,2.5-2.2,5-3.31,7.49H28.2q-1.74-2.33-3.49-4.63c-.06-.12-.21-.21-.22-.35,1.31-3.13,2.61-6.26,3.93-9.37v-.14c-2.89.28-5.77.64-8.66.91A5,5,0,0,1,20.35,12.21ZM7.85,13.79a.68.68,0,0,1-.15-.26q5-.58,10-1.12a8.82,8.82,0,0,0-.32,2.1,12.12,12.12,0,0,1-1.21.15,7.61,7.61,0,0,0-5.21,3.14l-.08,0C9.81,16.5,8.85,15.13,7.85,13.79Zm-.54,18c.23-.71.6-1.4.88-2.11,1.24-2.84,2.48-5.7,3.71-8.55a11.72,11.72,0,0,1,.88-1.82A5.27,5.27,0,0,1,16.6,17c2.69-.26,5.37-.6,8.06-.83-.5,1.31-1.07,2.57-1.59,3.86-.3.64-.51,1.32-.85,1.93-3.39.42-6.76.84-10.14,1.29l0,.09c1.62,2.25,3.25,4.51,4.88,6.75.06.1.18.19.19.32a5.49,5.49,0,0,1-1.78.45C12.69,31.18,10,31.49,7.31,31.79Zm15.43,9.34c-.17,0-.2-.17-.29-.27-1.88-2.54-3.74-5.11-5.63-7.64a.69.69,0,0,0-.05-.13,9,9,0,0,0,1.85-.66,17.49,17.49,0,0,0,1.45,1.77,7.52,7.52,0,0,0,4.75,2.13C24.14,37.93,23.41,39.52,22.74,41.13Zm4.39-7.33a10.53,10.53,0,0,1-2.38.12,5.17,5.17,0,0,1-3.07-1.52,8.85,8.85,0,0,1-.93-1.17l-4.17-5.79c-.08-.1-.28-.22-.09-.33,2-.17,4.05-.54,6.07-.72,2.08,2.7,4.11,5.43,6.17,8.13h.09c.3-.54.51-1.14.78-1.7.92-2.09,1.86-4.18,2.77-6.27a5.32,5.32,0,0,1,1.44,1.51c1.58,2.14,3.13,4.3,4.73,6.43Zm17-20.26c-.14,0-.12.21-.19.3-.38.89-.8,1.78-1.14,2.68a21.11,21.11,0,0,1-.27,13.86c-.07.14.07.24.13.33.41.55.82,1.11,1.22,1.67.08.08.13.23.25.24a23.43,23.43,0,0,0,0-19.08Zm-25,30.31c-.09-.12-.16-.29-.31-.34A20.61,20.61,0,0,1,8.52,38C8,37.44,7.51,36.84,7,36.3c-.88.06-1.75.2-2.62.28v.1a23.48,23.48,0,0,0,6.36,6,22.49,22.49,0,0,0,10.09,3.46c0-.13-.13-.22-.19-.33C20.13,45.17,19.64,44.5,19.16,43.85ZM38.61,37a20.67,20.67,0,0,1-12.17,6.74c-.36.81-.74,1.63-1.06,2.46h.09a22.67,22.67,0,0,0,9.91-3.42,23.72,23.72,0,0,0,6.5-6.13l-.18,0C40.67,36.71,39.64,36.82,38.61,37Z" style="fill:url(#b)"/><line x1="146.22" y1="46.16" y2="46.16" style="fill:none"/><line x2="146.22" style="fill:none"/><line x1="146.22" x2="146.22" y2="46.16" style="fill:none"/><line y2="46.16" style="fill:none"/></svg>